<?xml version="1.0" standalone="no"?><!DOCTYPE svg PUBLIC "-//W3C//DTD SVG 1.1//EN" "http://www.w3.org/Graphics/SVG/1.1/DTD/svg11.dtd"><svg class="icon" width="32px" height="32.00px" viewBox="0 0 1024 1024" version="1.1" xmlns="http://www.w3.org/2000/svg"><path fill="#333333" d="M931.5 202.8H93.4c-16.8 0-30.4-13.6-30.4-30.4S76.6 142 93.4 142h838.1c16.8 0 30.4 13.6 30.4 30.4s-13.6 30.4-30.4 30.4zM121.5 893.7c-6.6 0-13.3-2.1-18.8-6.6-13.2-10.4-15.4-29.5-5-42.7L483.9 356c10.4-13.2 29.5-15.4 42.7-5 13.2 10.4 15.4 29.5 5 42.7L145.4 882.2c-6 7.6-14.9 11.5-23.9 11.5zM904.3 893.7c-9 0-17.9-4-23.9-11.5L494.3 393.7c-10.4-13.2-8.2-32.3 5-42.7 13.2-10.4 32.3-8.2 42.7 5l386.2 488.4c10.4 13.2 8.2 32.3-5 42.7-5.6 4.5-12.3 6.6-18.9 6.6z" /></svg>